<svg id="Layer_1" data-name="Layer 1" xmlns="http://www.w3.org/2000/svg" viewBox="0 0 2583.71 1008.06"><defs><style>.cls-1{fill:#fb7d07;}.cls-1,.cls-2,.cls-3,.cls-4,.cls-5,.cls-6{fill-rule:evenodd;}.cls-2{fill:#00314e;}.cls-3{fill:#00acdc;}.cls-4{fill:#007298;}.cls-5{fill:#41d9ff;}.cls-6{fill:#fff;}</style></defs><title>codewiz-logo</title><path class="cls-1" d="M2181.72,430.24h75.33l-74.93,302.88h-64.55l-49-195.67-49,195.67h-64.16L1880,430.24H1955l38.26,197.27,43.44-197.27H2100l43.84,197.27,37.85-197.27Zm181.54,302.88h-71.73V430.24h71.73V733.12Zm80.38,0q-15.94,0-27.1-9.17t-11.16-25.9a57.59,57.59,0,0,1,3.79-19.33,105,105,0,0,1,12.15-22.92L2536.5,486a44.76,44.76,0,0,0-6-.6c-2.65-.13-5-.19-7.17-.19h-92.85L2407,429.84h108q9.95,0,18.13.19l8.57.21q28.7,0,46.83,11.16t18.13,32.67q0,9.58-4.39,21.13a124.43,124.43,0,0,1-13.54,25.11L2481.1,677.73h6.77a38,38,0,0,1,6.78.4h92.85l23.52,55H2443.64Z" transform="translate(-27.31 -18.99)"/><path class="cls-2" d="M1089,733.12h-83.7q-24.71,0-38.66-6.58T945.88,710.4a48.85,48.85,0,0,1-8.57-20.72A131.74,131.74,0,0,1,935.52,669V494.4a129.65,129.65,0,0,1,1.79-20.33,50.49,50.49,0,0,1,8.57-20.92q6.78-9.76,20.33-16.33t37.06-6.58h108l-23.92,55H1024a51.21,51.21,0,0,0-10.36.79,8.88,8.88,0,0,0-5.38,3.18c-1.2,1.6-1.86,3.93-2,7s-.19,7.24-.19,12.56V654.6q0,8.39.4,13.16c.26,3.18,1.13,5.58,2.59,7.18s3.72,2.52,6.77,2.79,7.51.4,13.36.4h83.69l-23.91,55Zm50.61-220a91.25,91.25,0,0,1,6.77-35.67A74.19,74.19,0,0,1,1166.07,450Q1179,438.6,1198,432.43t43.64-6.17q25.9,0,45.23,6.37t32.08,17.94A73.28,73.28,0,0,1,1338,478.06a93.45,93.45,0,0,1,6.38,35.07V651a91.89,91.89,0,0,1-6.38,34.87A71.92,71.92,0,0,1,1318.9,713q-12.75,11.37-32.08,17.74t-45.23,6.38q-24.71,0-43.64-6.19t-31.88-17.53a75,75,0,0,1-19.73-27.1q-6.78-15.75-6.77-35.27V513.13ZM1242,479.66q-10.77,0-16.94,3.18a24.55,24.55,0,0,0-9.37,8,25.18,25.18,0,0,0-4,10.76,90.55,90.55,0,0,0-.8,12V649.82a90.55,90.55,0,0,0,.8,12,25.13,25.13,0,0,0,4,10.76,24.38,24.38,0,0,0,9.37,8q6.18,3.19,16.94,3.19c6.9,0,12.36-1.06,16.34-3.19a24.57,24.57,0,0,0,9.16-8,27.23,27.23,0,0,0,4.19-10.76,73,73,0,0,0,1-12V513.53a73,73,0,0,0-1-12,27.29,27.29,0,0,0-4.19-10.76,24.74,24.74,0,0,0-9.16-8c-4-2.12-9.44-3.18-16.34-3.18Zm339.94,171.76a84.39,84.39,0,0,1-5.78,31.08,71.76,71.76,0,0,1-17.73,26.11q-12,11.35-30.09,17.93t-42.85,6.58H1383.87V430.24h101.61q24.72,0,42.85,6.37t30.09,17.54a70.3,70.3,0,0,1,17.73,25.7,83,83,0,0,1,5.78,30.89V651.42Zm-127.52,27.49h25.9q14.34,0,22.71-8a25.88,25.88,0,0,0,8.37-19.52V510.74A26,26,0,0,0,1503,491.2q-8.36-7.95-22.71-7.95h-25.9V678.91Zm317.22,53.81c-1.33,0-4.65.06-10,.2s-11.43.2-18.34.2h-54.2q-24.7,0-38.85-6.58T1629.16,710a50.4,50.4,0,0,1-8.77-21.32,135.44,135.44,0,0,1-1.8-20.92V495.2q0-35.07,18.14-50.22t53.2-15.14h104l-24.31,55.79h-61.37a54.28,54.28,0,0,0-10.57.8,9,9,0,0,0-5.58,3.18c-1.19,1.59-1.86,4-2,7.18s-.2,7.44-.2,12.75V550.2h95.65L1761.27,606h-71.34v47.43q0,13.14,1.2,17.73t8.76,5.38h96Z" transform="translate(-27.31 -18.99)"/><path class="cls-3" d="M1069.93,769.62h20.88V874.89h-20.88V769.62Zm1373.59.13H2468v76.36h-24.48V769.75Zm0,105.14V856.63H2468v18.26Zm-47.31-78.3c6.72,0,12.08.83,16,2.49a21.56,21.56,0,0,1,9.13,6.71,22.31,22.31,0,0,1,4.15,9.83,69.64,69.64,0,0,1,1,12v47.31h-20.75V827.58a24,24,0,0,0-.48-4.92,11.39,11.39,0,0,0-1.66-4,8,8,0,0,0-3.12-2.7,10.37,10.37,0,0,0-4.7-1c-.64,0-1.94.1-3.88.27a18.39,18.39,0,0,0-6.08,1.8v57.83h-20.61V811.81c0-1.48,0-3,.07-4.63s.08-3,.08-4.09a38.14,38.14,0,0,1,8.7-3.45,91.85,91.85,0,0,1,9.06-1.94q4.36-.69,7.75-.9c2.26-.13,3.8-.21,4.63-.21Zm-43,2.22v56.71c-.1,1.94-.14,3.74-.14,5.39v8.72a38.73,38.73,0,0,1-8.92,3.66,79.7,79.7,0,0,1-9.2,2q-4.42.69-7.89.91c-2.31.13-3.87.2-4.7.2h-.69q-10.24,0-16.4-2.56a21.6,21.6,0,0,1-9.33-6.85,22.91,22.91,0,0,1-4.15-10,73.09,73.09,0,0,1-1-12.24V798.81h21v45.92a17.73,17.73,0,0,0,2.22,9.06c1.48,2.54,4.15,3.8,8,3.8.65,0,2-.08,4-.27a18.41,18.41,0,0,0,6.15-1.8V798.81Zm-86.46-.14h18.68L2276,817.34h-9.27v57.55h-20.61V796.73a30.44,30.44,0,0,1,1.94-10.72,23.59,23.59,0,0,1,6-9.06,30.39,30.39,0,0,1,10.23-6.22,41.23,41.23,0,0,1,14.73-2.35,9.61,9.61,0,0,1,4.3.69v18.26a3.82,3.82,0,0,0-1.46-.35c-.61-.05-1.32-.07-2.14-.07a32.62,32.62,0,0,0-3.88.27,14.49,14.49,0,0,0-4.28,1.25,8.8,8.8,0,0,0-3.46,2.9,9.12,9.12,0,0,0-1.39,5.4v1.94Zm-68.34,43.44h-40.52q0,2.89.14,6.29a21.09,21.09,0,0,0,1.17,6.29,11.5,11.5,0,0,0,3.25,4.85,9.42,9.42,0,0,0,6.37,1.93,11.34,11.34,0,0,0,4.7-.83,9.15,9.15,0,0,0,2.9-2,8.49,8.49,0,0,0,1.66-2.48c.38-.88.7-1.69,1-2.43h19.08a31.7,31.7,0,0,1-2.61,9.28,20.33,20.33,0,0,1-5.4,7,23.43,23.43,0,0,1-8.72,4.43A45.76,45.76,0,0,1,2168.8,876a31.78,31.78,0,0,1-14.18-2.91,26.54,26.54,0,0,1-9.48-7.61,30.74,30.74,0,0,1-5.25-10.79,47.41,47.41,0,0,1-1.66-12.58V825.23a34.69,34.69,0,0,1,1.86-11.63,24.52,24.52,0,0,1,5.61-9.05,24.88,24.88,0,0,1,9.47-5.88,40.23,40.23,0,0,1,13.63-2.08c5.8,0,10.62.91,14.45,2.7a24.5,24.5,0,0,1,9.14,7.12,26.14,26.14,0,0,1,4.69,10.38,56.65,56.65,0,0,1,1.31,12.32v13Zm-18.52-14.67c0-1.76-.07-3.57-.21-5.47a16.42,16.42,0,0,0-1.25-5.25,9.5,9.5,0,0,0-3.25-4,10.8,10.8,0,0,0-6.36-1.6c-3.87,0-6.67,1.18-8.37,3.54s-2.56,5.87-2.56,10.58v3.88h22v-1.67Zm-70-28.63h21.72l-25.87,76.08h-18.54l-25.87-76.08h21.45l13.7,50.07,13.41-50.07ZM1992,850.12v0Zm0-.41v0Zm0,1.11v0Zm62.67,18.95a43.3,43.3,0,0,1-10.11,3.8c-3.59.88-7,1.54-10.23,2-3.68.45-7.38.73-11.06.83a45.66,45.66,0,0,1-14.18-1.94,27.13,27.13,0,0,1-9.69-5.33,20.47,20.47,0,0,1-5.6-8.09,28.34,28.34,0,0,1-1.8-10.23,19.29,19.29,0,0,1,8.3-16.61,26.23,26.23,0,0,1,8.58-3.86,39.85,39.85,0,0,1,10.09-1.24,44.39,44.39,0,0,1,8.58.83,42.08,42.08,0,0,1,8.31,2.49v-8.59c0-4.6-.89-7.88-2.64-9.82s-4.89-2.91-9.41-2.91a14.35,14.35,0,0,0-6.35,1.18,9.7,9.7,0,0,0-3.6,2.91,8.92,8.92,0,0,0-1.59,3.66,19,19,0,0,0-.35,3.46h-17.56a26.92,26.92,0,0,1,1.72-9.47,23.3,23.3,0,0,1,5.26-8.24,26.31,26.31,0,0,1,8.92-5.8,33.34,33.34,0,0,1,12.73-2.22,52.35,52.35,0,0,1,14.73,1.8,24.5,24.5,0,0,1,9.75,5.25,20.38,20.38,0,0,1,5.47,8.52,35.33,35.33,0,0,1,1.73,11.55v46.06Zm-18.81-21.72a21.89,21.89,0,0,0-5.68-2.63,28.87,28.87,0,0,0-9-1.24,18.54,18.54,0,0,0-7.75,1.52,5.24,5.24,0,0,0-3.31,5.12,10.64,10.64,0,0,0,1.17,5.26,9.64,9.64,0,0,0,3,3.32,12.64,12.64,0,0,0,4.36,1.79,23.46,23.46,0,0,0,5.11.56,37,37,0,0,0,6.37-.56,29.08,29.08,0,0,0,5.68-1.52V848.05Zm-53-22.41v49.25h-20.75V826.75a10.11,10.11,0,0,0-1.38-5.75,7.67,7.67,0,0,0-3.46-2.83,14.76,14.76,0,0,0-4.64-1c-1.69-.09-3.38-.14-5-.14h-5.12v57.83h-20.61V769.75h20.61v28.92h5.12a48.82,48.82,0,0,1,15.35,2.15,32.88,32.88,0,0,1,10.86,5.74,23.17,23.17,0,0,1,6.57,8.57,27.36,27.36,0,0,1,2.36,10.51Zm-109.69,31v18.26h-24.48V856.63Zm-30.71-14.52H1802q0,2.89.14,6.29a21.09,21.09,0,0,0,1.17,6.29,11.5,11.5,0,0,0,3.25,4.85,9.42,9.42,0,0,0,6.37,1.93,11.34,11.34,0,0,0,4.7-.83,9.15,9.15,0,0,0,2.9-2,8.3,8.3,0,0,0,1.66-2.48c.37-.88.7-1.69,1-2.43h19.09a31.71,31.71,0,0,1-2.63,9.28,20.18,20.18,0,0,1-5.39,7,23.35,23.35,0,0,1-8.72,4.43,45.76,45.76,0,0,1-12.58,1.53,31.78,31.78,0,0,1-14.18-2.91,26.42,26.42,0,0,1-9.47-7.61,30.78,30.78,0,0,1-5.27-10.79,47.82,47.82,0,0,1-1.66-12.58V825.23a34.68,34.68,0,0,1,1.87-11.63,24.39,24.39,0,0,1,5.61-9.05,24.88,24.88,0,0,1,9.47-5.88,40.23,40.23,0,0,1,13.63-2.08c5.8,0,10.62.91,14.46,2.7a24.43,24.43,0,0,1,9.12,7.12,26,26,0,0,1,4.7,10.38,56.65,56.65,0,0,1,1.32,12.32v13ZM1824,827.44c0-1.76-.08-3.57-.21-5.47a16.42,16.42,0,0,0-1.25-5.25,9.5,9.5,0,0,0-3.25-4,10.82,10.82,0,0,0-6.36-1.6q-5.82,0-8.37,3.54T1802,825.23v3.88h22v-1.67Zm-53.54-57.82V846a35.6,35.6,0,0,1-2,12.1,26.5,26.5,0,0,1-5.94,9.68,27,27,0,0,1-9.76,6.37,36.51,36.51,0,0,1-13.41,2.28,38.36,38.36,0,0,1-13.7-2.22A25.93,25.93,0,0,1,1716,868a25.51,25.51,0,0,1-5.74-9.4,35.14,35.14,0,0,1-1.94-11.82V824.26q0-12.85,8.51-20.13t26.08-7.54h3.25a19.2,19.2,0,0,1,3.25.28V769.62Zm-31.12,89.08q5.81,0,8-3.25c1.43-2.16,2.15-5.33,2.15-9.47V814.3a33.81,33.81,0,0,0-8.17-1.1,14,14,0,0,0-8.57,2.56c-2.31,1.69-3.46,4.81-3.46,9.32v21.73q0,5.81,2.21,8.85c1.48,2,4.1,3,7.89,3Zm-71.38-62.11q16.6,0,23.65,7.4t7.06,21.65v20.61a40.89,40.89,0,0,1-1.66,12,24.13,24.13,0,0,1-5.33,9.47,24.83,24.83,0,0,1-9.47,6.3,39.36,39.36,0,0,1-14.25,2.29,37,37,0,0,1-13.62-2.29,25.5,25.5,0,0,1-9.48-6.3,26,26,0,0,1-5.6-9.47,36.65,36.65,0,0,1-1.87-12V825.08a34.3,34.3,0,0,1,1.87-11.6,23.62,23.62,0,0,1,5.6-9,25.35,25.35,0,0,1,9.48-5.81,40.17,40.17,0,0,1,13.62-2.08Zm0,62.39c3.69,0,6.27-1.19,7.75-3.6a16.65,16.65,0,0,0,2.21-8.85V824.82q0-5.4-2.49-8.45c-1.66-2-4.15-3-7.47-3-3.78,0-6.38,1.23-7.82,3.66a17.14,17.14,0,0,0-2.14,8.79v20.88a16.73,16.73,0,0,0,2.14,8.72c1.44,2.41,4,3.6,7.82,3.6Zm-72.07-.41q5.67,0,8-3.74a16.85,16.85,0,0,0,2.28-9H1627a42.69,42.69,0,0,1-1.65,12.1,24.31,24.31,0,0,1-5.4,9.68,25.69,25.69,0,0,1-9.69,6.44,39.09,39.09,0,0,1-14.38,2.35,37.44,37.44,0,0,1-13.7-2.28,26.7,26.7,0,0,1-9.61-6.23,25.59,25.59,0,0,1-5.74-9.4,35.26,35.26,0,0,1-1.93-11.84V825.23a33.47,33.47,0,0,1,1.93-11.63,24.68,24.68,0,0,1,5.74-9.05,25.54,25.54,0,0,1,9.61-5.88,40.87,40.87,0,0,1,13.7-2.08,40,40,0,0,1,13.83,2.15,26.48,26.48,0,0,1,9.69,6,24.12,24.12,0,0,1,5.74,9.34,37,37,0,0,1,1.86,12h-20.89a16.86,16.86,0,0,0-2.28-9c-1.52-2.48-4.17-3.73-8-3.73s-6.41,1.15-7.89,3.46a15.37,15.37,0,0,0-2.21,8.44v21.43a15.1,15.1,0,0,0,2.28,8.45c1.52,2.3,4.13,3.46,7.82,3.46Zm-106.92-62q16.59,0,23.64,7.4t7.06,21.65v20.61a40.89,40.89,0,0,1-1.66,12,24.13,24.13,0,0,1-5.33,9.47,24.83,24.83,0,0,1-9.47,6.3,39.31,39.31,0,0,1-14.24,2.29,37,37,0,0,1-13.63-2.29,25.58,25.58,0,0,1-9.48-6.3,26.13,26.13,0,0,1-5.6-9.47,36.65,36.65,0,0,1-1.86-12V825.08a34.3,34.3,0,0,1,1.86-11.6,23.75,23.75,0,0,1,5.6-9,25.43,25.43,0,0,1,9.48-5.81,40.19,40.19,0,0,1,13.63-2.08Zm0,62.39c3.68,0,6.26-1.19,7.75-3.6a16.65,16.65,0,0,0,2.21-8.85V824.82c0-3.6-.84-6.42-2.49-8.45s-4.16-3-7.47-3c-3.79,0-6.39,1.23-7.82,3.66a17.14,17.14,0,0,0-2.15,8.79v20.88a16.73,16.73,0,0,0,2.15,8.72c1.43,2.41,4,3.6,7.82,3.6Zm-55.2-41.5v29.18a9.11,9.11,0,0,0,1.46,5.47,10.56,10.56,0,0,0,3.46,3.12,12.81,12.81,0,0,0,4.29,1.45,26.64,26.64,0,0,0,3.94.34,11.07,11.07,0,0,0,3.59-.41V875a3.83,3.83,0,0,1-1.79.48c-.74,0-1.58.08-2.5.08a41.5,41.5,0,0,1-14.87-2.42,29.9,29.9,0,0,1-10.37-6.44,25.21,25.21,0,0,1-6-9.19,31.08,31.08,0,0,1-1.94-10.87V769.75h20.75v29.06h18.41l-9.42,18.67Zm-97.79-20.89q10.1,0,16,2.49a21.56,21.56,0,0,1,9.13,6.71,22.31,22.31,0,0,1,4.15,9.83,69.64,69.64,0,0,1,1,12v47.31h-20.75V827.58a24,24,0,0,0-.48-4.92,11.2,11.2,0,0,0-1.66-4,8,8,0,0,0-3.12-2.7,10.37,10.37,0,0,0-4.7-1c-.64,0-1.94.1-3.87.27a18.26,18.26,0,0,0-6.08,1.8v57.83h-20.62V811.81c0-1.48,0-3,.07-4.63s.07-3,.07-4.09a38.59,38.59,0,0,1,8.71-3.45,91.41,91.41,0,0,1,9.07-1.94q4.35-.69,7.75-.9c2.25-.13,3.8-.21,4.63-.21Zm-37.35,2.22L1289,817.62h-11.21a24.31,24.31,0,0,0-4.15.35,8.91,8.91,0,0,0-3.59,1.37,7.68,7.68,0,0,0-2.49,2.91,11,11,0,0,0-1,5v47.59h-20.88V827.3a28.91,28.91,0,0,1,2.06-10.93,24.29,24.29,0,0,1,6.37-9,31.27,31.27,0,0,1,10.79-6.17,49,49,0,0,1,15.35-2.41h18.26Zm-128.09,51.31v0Zm0-.41v0Zm0,1.11v0Zm62.66,18.95a43.15,43.15,0,0,1-10.09,3.8c-3.6.88-7,1.54-10.24,2q-5.53.67-11.07.83a45.66,45.66,0,0,1-14.18-1.94,27.08,27.08,0,0,1-9.68-5.33,20.37,20.37,0,0,1-5.6-8.09,28.34,28.34,0,0,1-1.8-10.23,19.29,19.29,0,0,1,8.3-16.61,26.23,26.23,0,0,1,8.58-3.86,39.87,39.87,0,0,1,10.1-1.24,44.51,44.51,0,0,1,8.57.83,41.79,41.79,0,0,1,8.3,2.49v-8.59q0-6.9-2.63-9.82c-1.75-1.93-4.89-2.91-9.41-2.91a14.43,14.43,0,0,0-6.36,1.18,9.78,9.78,0,0,0-3.6,2.91,8.9,8.9,0,0,0-1.58,3.66,20,20,0,0,0-.35,3.46h-17.56a26.92,26.92,0,0,1,1.72-9.47,23.41,23.41,0,0,1,5.25-8.24,26.51,26.51,0,0,1,8.92-5.8,33.38,33.38,0,0,1,12.73-2.22,52.35,52.35,0,0,1,14.73,1.8,24.54,24.54,0,0,1,9.76,5.25,20.57,20.57,0,0,1,5.47,8.52,35.61,35.61,0,0,1,1.72,11.55v46.06Zm-18.81-21.72a22,22,0,0,0-5.67-2.63,28.91,28.91,0,0,0-9-1.24,18.46,18.46,0,0,0-7.74,1.52,5.25,5.25,0,0,0-3.33,5.12,10.53,10.53,0,0,0,1.18,5.26,9.64,9.64,0,0,0,3,3.32,12.48,12.48,0,0,0,4.36,1.79,23.33,23.33,0,0,0,5.11.56,37,37,0,0,0,6.37-.56,28.78,28.78,0,0,0,5.67-1.52V848.05Zm-51.6-5.94h-40.53q0,2.89.14,6.29a21.41,21.41,0,0,0,1.17,6.29,11.5,11.5,0,0,0,3.25,4.85q2.22,1.94,6.37,1.93a11.34,11.34,0,0,0,4.7-.83,9.31,9.31,0,0,0,2.91-2,8.26,8.26,0,0,0,1.65-2.48c.38-.88.7-1.69,1-2.43h19.09a31.71,31.71,0,0,1-2.62,9.28,20.21,20.21,0,0,1-5.4,7,23.31,23.31,0,0,1-8.71,4.43,45.83,45.83,0,0,1-12.59,1.53,31.81,31.81,0,0,1-14.18-2.91,26.42,26.42,0,0,1-9.47-7.61,30.76,30.76,0,0,1-5.26-10.79,47.41,47.41,0,0,1-1.66-12.58V825.23a34.69,34.69,0,0,1,1.86-11.63,24.5,24.5,0,0,1,5.6-9.05,25,25,0,0,1,9.49-5.88,40.13,40.13,0,0,1,13.62-2.08c5.81,0,10.63.91,14.46,2.7a24.55,24.55,0,0,1,9.13,7.12,26.16,26.16,0,0,1,4.7,10.38,57.28,57.28,0,0,1,1.31,12.32v13Zm-18.54-14.67c0-1.76-.06-3.57-.2-5.47a16.42,16.42,0,0,0-1.25-5.25,9.5,9.5,0,0,0-3.25-4,10.78,10.78,0,0,0-6.36-1.6c-3.88,0-6.66,1.18-8.37,3.54s-2.56,5.87-2.56,10.58v3.88h22Z" transform="translate(-27.31 -18.99)"/><path class="cls-2" d="M393.22,142l-.89-42.12c-1.21-60.11,20.72-80.2,52.05-80.83,28.95-.59,64.36,18.44,94.92,34.86,14.33,7.7,27.52,14.79,37.43,18.42C606.5,83.2,631.9,85.17,652.07,77c16.5-6.73,30.11-20.65,40.43-42.47,7.68-16.24,31.63-8,22.81,10.68-13.15,27.9-31.29,46-53.78,55.15-26.31,10.73-57.73,8.78-93.4-4.3-11.58-4.24-25.53-11.74-40.7-19.89-27.92-15-60.28-32.39-82.56-31.94-16.62.33-28.2,14-27.36,55.17l.88,42.12Z" transform="translate(-27.31 -18.99)"/><path class="cls-2" d="M182.82,932.84A321.92,321.92,0,0,1,87.2,705.11c5.24-46,62.88-469.41,64.35-479.28,5.09-34.34,32.83-58.25,72.75-73.85,88.87-34.73,307.44-34.88,393.83,4.5,34.16,15.57,57.47,38.16,62.1,69.35,1.46,9.87,59.1,433.28,64.35,479.28A321.92,321.92,0,0,1,649,932.84C522.45,1058.46,309.32,1058.46,182.82,932.84Z" transform="translate(-27.31 -18.99)"/><path class="cls-4" d="M719.69,706.46c-3.24-28.23-7.26-56.56-11-84.73q-10.05-75.54-20.28-151.06-11-81.57-22.11-163.11c-3.54-26-6.84-52.15-10.68-78.08-2.86-19.29-48-51.74-73.56-52.74,2.65,22.9,13.71,79.21,16.23,102.11,6,54.37-33.08,72.48-27.15,126.85,5.48,50.35,38.53,122.49,43.93,172.85,10.42,97.29,69.47,158.22,13.55,253.28C517.69,1020.4,235.89,1004.27,195,748.13,177.41,638.34,197.7,638,202.2,596c5.4-50.36,41.35-118.14,46.83-168.5,5.92-54.37-31.66-111.65-25.7-166,2.52-22.92,10-58.19,12.6-81.09-27.8,6.16-56.93,30-59.77,49.13-3.85,25.93-7.15,52.09-10.69,78.08q-11.08,81.54-22.11,163.11-10.19,75.52-20.27,151.06c-3.75,28.17-7.76,56.5-11,84.73a297.07,297.07,0,0,0,88.27,208.72c116.8,116,314.27,116,431.08,0A297.11,297.11,0,0,0,719.69,706.46Z" transform="translate(-27.31 -18.99)"/><path class="cls-3" d="M568.36,173.26c-92.11-16.8-228.34-15.64-314.18,1.6C150.68,195.65,216.47,301.53,228,379.64c10.61,72.15-3,119.16-21.35,162.19C151,672.34,112.88,896.61,283.63,972c93.13,41.1,234.94,43.32,318.58-35.52C710.14,834.71,672.48,690.68,636,558.93c-18.89-68.09-40.2-106.8-36.31-186.94,2.73-56.11,91.93-176.25-31.28-198.73ZM494.63,808.73C371.13,874.41,273.27,774.47,279,777.18c57,26.73,122.51,54.18,213.85,8.86a187.19,187.19,0,0,0,89-93.12c-5.47,1.18-13.66,4.51-26.88,9.21,38.12-35.76,49.84-27.82,47.62,21.82-6.17-16.3-8.07-25.37-11.58-29.24C576.35,741.35,543.18,782.9,494.63,808.73Z" transform="translate(-27.31 -18.99)"/><path class="cls-5" d="M559,174.51c72.44,37,36.76,104.18,11.77,161.17C556,369.34,554,397.57,555.81,419,567,549.12,673,753.47,616.19,868.46c-16.7,33.79-50.48,67.15-94.79,106.89,72.9-30,135.25-90.19,143.78-191.61,5.06-60.09-30.43-168.22-34.84-209.33-5.48-51.07-41.49-113.75-47.05-164.81C577,352,701.29,194.89,559,174.51Z" transform="translate(-27.31 -18.99)"/><path class="cls-2" d="M44.42,456.27c67.46-2.84,308.55-44.43,340.24,23.62,9.31,20,54.88,18.09,62.49-2.63C473,406.8,716.75,428,784.21,425.2c28.36-1.19,24.39,50.72-10.29,52.1l2.17,51.57c3.44,82-76.38,134.08-184.47,125.29-58.3-4.75-117-34.41-137.72-79.75-18.76-41.14-52.58-39.72-67.82,2.85-16.81,46.92-72.85,81.39-130.56,91C148.56,686.1,64.64,640.86,61.2,558.89L59,507.32C24.36,508.86,16.05,457.46,44.42,456.27Z" transform="translate(-27.31 -18.99)"/><path class="cls-6" d="M355.84,505.09c17.21,150.15-160.48,167.23-232,110.15C96.7,593.56,74.85,512.37,107,492.8c23-14,69.51-18.71,116.23-20.47C288.59,469.88,352.15,473,355.84,505.09Z" transform="translate(-27.31 -18.99)"/><path class="cls-6" d="M478,500c-4.55,151.06,173.94,153.18,240.4,90.3,25.25-23.88,40.21-106.62,6.53-123.43-24.14-12-70.83-12.81-117.54-10.64C542,459.23,479,467.62,478,500Z" transform="translate(-27.31 -18.99)"/><path class="cls-2" d="M232.79,503.18c6.53-.27,12.71,2.6,17.84,7.7-8.27,1.75-14.31,10.88-13.86,21.59.49,11.69,8.52,20.84,17.93,20.45a14.82,14.82,0,0,0,9.67-4.3c0,23.06-12.11,41.84-27.89,42.5-16.39.69-30.51-18.43-31.53-42.72S216.4,503.87,232.79,503.18Z" transform="translate(-27.31 -18.99)"/><path class="cls-2" d="M593.37,488c6.53-.28,12.7,2.6,17.83,7.7-8.26,1.75-14.3,10.87-13.85,21.59.49,11.68,8.52,20.84,17.92,20.44a14.84,14.84,0,0,0,9.68-4.29c0,23.06-12.12,41.84-27.89,42.5-16.39.69-30.51-18.44-31.53-42.72S577,488.73,593.37,488Z" transform="translate(-27.31 -18.99)"/><path class="cls-2" d="M418.15,576.55h0c19.88-.06,36.21,13.4,36.28,29.91l.38,89.53c.07,16.52-16.14,30.07-36,30.13h0c-19.89.06-36.21-13.4-36.28-29.92l-.38-89.53C382.06,590.16,398.27,576.6,418.15,576.55Z" transform="translate(-27.31 -18.99)"/><path class="cls-2" d="M159.88,417.2C198.45,369.37,245.66,357.13,305,373l2.18,33.37C251.78,397.73,216.52,400,159.88,417.2Z" transform="translate(-27.31 -18.99)"/><path class="cls-2" d="M656.31,379.62C608,341.72,559.2,340.45,505,369.25l5.41,33C562.39,381.38,597.25,375.64,656.31,379.62Z" transform="translate(-27.31 -18.99)"/><path class="cls-2" d="M366.1,128.93l3.57-17.28c2.29-11.1,21.55-14.25,40.45-13.74,18,.48,35.73,4.12,37.85,14l5,23.3Z" transform="translate(-27.31 -18.99)"/></svg>