<?xml version="1.0" encoding="utf-8"?>
<!-- Generator: Adobe Illustrator 23.0.1, SVG Export Plug-In . SVG Version: 6.00 Build 0)  -->
<svg version="1.1" id="Layer_1" xmlns="http://www.w3.org/2000/svg" xmlns:xlink="http://www.w3.org/1999/xlink" x="0px" y="0px"
	 viewBox="0 0 1500 1500" style="enable-background:new 0 0 1500 1500;" xml:space="preserve">
<style type="text/css">
	.st0{fill-rule:evenodd;clip-rule:evenodd;fill:#FB7D07;}
	.st1{fill-rule:evenodd;clip-rule:evenodd;fill:#00314E;}
	.st2{fill-rule:evenodd;clip-rule:evenodd;fill:#00ACDC;}
	.st3{fill-rule:evenodd;clip-rule:evenodd;fill:#007298;}
	.st4{fill-rule:evenodd;clip-rule:evenodd;fill:#41D9FF;}
	.st5{fill-rule:evenodd;clip-rule:evenodd;fill:#FFFFFF;}
</style>
<g>
	<path class="st0" d="M1002.73,1142.41h47.5l-47.25,191.01h-40.71l-30.92-123.4l-30.91,123.4h-40.46l-47.5-191.01h47.26
		l24.13,124.41l27.4-124.41h39.96l27.65,124.41L1002.73,1142.41L1002.73,1142.41z M1117.21,1333.42h-45.24v-191.01h45.24V1333.42
		L1117.21,1333.42z M1167.91,1333.42c-6.7,0-12.4-1.93-17.09-5.78c-4.69-3.85-7.04-9.3-7.04-16.34c0-3.69,0.79-7.75,2.39-12.19
		c1.59-4.44,4.15-9.26,7.66-14.46l72.64-107.07c-0.84-0.17-2.09-0.29-3.77-0.38c-1.67-0.08-3.18-0.12-4.52-0.12h-58.56l-14.83-34.94
		h51.53h16.59c4.18,0,8,0.04,11.44,0.12c3.43,0.09,5.24,0.13,5.4,0.13c12.06,0,21.91,2.34,29.53,7.04
		c7.62,4.69,11.44,11.56,11.44,20.61c0,4.03-0.93,8.46-2.77,13.32c-1.84,4.86-4.69,10.14-8.54,15.84l-67.86,99.28
		c0.83,0,2.26,0,4.27,0c2.01,0,3.43,0.08,4.27,0.25h58.56l14.83,34.68h-41.97h-6.29h-33.18h-10.3H1167.91z"/>
	<path class="st1" d="M313.57,1333.42h-19.1H263.8h-3.01c-10.39,0-18.51-1.39-24.38-4.15c-5.86-2.76-10.22-6.16-13.07-10.18
		c-2.85-4.02-4.65-8.38-5.4-13.07c-0.76-4.69-1.13-9.05-1.13-13.07v-36.44v-37.7v-35.94c0-3.86,0.37-8.13,1.13-12.82
		c0.75-4.69,2.55-9.08,5.4-13.19c2.85-4.11,7.12-7.54,12.82-10.3c5.7-2.77,13.49-4.15,23.37-4.15h68.11l-15.08,34.68H272.6
		c-2.85,0-5.02,0.17-6.54,0.5c-1.51,0.33-2.64,1.01-3.39,2.01c-0.76,1.01-1.18,2.47-1.26,4.4s-0.12,4.57-0.12,7.92v91.98
		c0,3.53,0.08,6.29,0.25,8.29c0.17,2.01,0.71,3.52,1.64,4.53c0.92,1.01,2.34,1.59,4.27,1.76c1.93,0.17,4.73,0.25,8.42,0.25h52.78
		L313.57,1333.42L313.57,1333.42z M345.49,1194.68c0-8.21,1.42-15.71,4.27-22.49c2.85-6.79,7-12.57,12.44-17.34
		c5.44-4.78,12.15-8.47,20.11-11.06c7.96-2.6,17.13-3.89,27.52-3.89c10.89,0,20.4,1.34,28.53,4.02c8.13,2.68,14.87,6.45,20.23,11.31
		c5.36,4.86,9.38,10.64,12.07,17.34c2.68,6.71,4.02,14.08,4.02,22.12v86.96c0,8.04-1.34,15.38-4.02,21.99
		c-2.68,6.62-6.7,12.32-12.07,17.09c-5.36,4.78-12.11,8.51-20.23,11.19c-8.13,2.68-17.63,4.02-28.53,4.02
		c-10.39,0-19.56-1.3-27.52-3.9c-7.96-2.59-14.66-6.28-20.11-11.06c-5.45-4.77-9.59-10.47-12.44-17.09
		c-2.85-6.62-4.27-14.03-4.27-22.25V1194.68L345.49,1194.68z M410.08,1173.58c-4.53,0-8.09,0.67-10.68,2.01
		c-2.6,1.34-4.56,3.01-5.91,5.02c-1.34,2.01-2.18,4.27-2.51,6.79c-0.33,2.51-0.5,5.03-0.5,7.54v85.95c0,2.51,0.17,5.03,0.5,7.54
		c0.33,2.51,1.18,4.77,2.51,6.79c1.34,2.01,3.31,3.69,5.91,5.02c2.6,1.34,6.16,2.01,10.68,2.01c4.35,0,7.79-0.67,10.3-2.01
		c2.51-1.34,4.44-3.02,5.78-5.02c1.34-2.01,2.22-4.27,2.64-6.79c0.42-2.51,0.63-5.03,0.63-7.54v-85.95c0-2.51-0.21-5.03-0.63-7.54
		c-0.42-2.51-1.3-4.77-2.64-6.79c-1.34-2.01-3.26-3.68-5.78-5.02C417.87,1174.24,414.43,1173.58,410.08,1173.58L410.08,1173.58z
		 M624.47,1281.9c0,6.87-1.22,13.41-3.64,19.6c-2.43,6.21-6.16,11.69-11.19,16.47c-5.03,4.78-11.35,8.55-18.97,11.31
		c-7.62,2.76-16.63,4.15-27.02,4.15h-64.09v-191.01h64.09c10.39,0,19.4,1.34,27.02,4.02c7.62,2.69,13.95,6.37,18.97,11.06
		c5.03,4.69,8.75,10.09,11.19,16.21c2.43,6.12,3.64,12.61,3.64,19.48V1281.9L624.47,1281.9z M544.04,1299.24h16.34
		c6.03,0,10.81-1.67,14.32-5.03c3.52-3.34,5.28-7.45,5.28-12.31v-88.72c0-4.86-1.76-8.96-5.28-12.32
		c-3.52-3.34-8.29-5.02-14.32-5.02h-16.34V1299.24L544.04,1299.24z M744.1,1333.17c-0.84,0-2.93,0.04-6.28,0.13
		c-3.36,0.08-7.21,0.13-11.57,0.13h-34.18c-10.39,0-18.56-1.39-24.51-4.15c-5.94-2.76-10.39-6.24-13.32-10.43
		c-2.93-4.18-4.77-8.67-5.53-13.44c-0.75-4.77-1.13-9.17-1.13-13.2v-108.83c0-14.74,3.81-25.3,11.44-31.67
		c7.62-6.37,18.81-9.55,33.55-9.55h65.6l-15.33,35.18h-38.7c-2.85,0-5.07,0.17-6.66,0.5c-1.6,0.33-2.77,1.01-3.52,2.01
		c-0.75,1-1.17,2.51-1.25,4.53c-0.08,2.01-0.13,4.69-0.13,8.04v25.64h60.32l-15.33,35.19h-44.99v29.91c0,5.53,0.25,9.26,0.76,11.18
		c0.5,1.93,2.34,3.05,5.53,3.39h60.57L744.1,1333.17z"/>
	<path class="st2" d="M301.57,1356.44h13.17v66.39h-13.17V1356.44L301.57,1356.44z M1167.83,1356.52h15.44v48.16h-15.44V1356.52
		L1167.83,1356.52z M1167.83,1422.83v-11.52h15.44v11.52H1167.83L1167.83,1422.83z M1137.99,1373.45c4.24,0,7.62,0.52,10.12,1.57
		c2.5,1.05,4.42,2.46,5.76,4.23c1.34,1.77,2.21,3.84,2.61,6.2c0.41,2.35,0.61,4.87,0.61,7.54v29.84h-13.08v-29.84
		c0-1.11-0.1-2.14-0.31-3.1c-0.2-0.96-0.55-1.8-1.05-2.53c-0.49-0.73-1.15-1.3-1.96-1.7c-0.82-0.41-1.81-0.61-2.96-0.61
		c-0.41,0-1.22,0.06-2.45,0.18c-1.22,0.12-2.5,0.5-3.84,1.13v36.47h-13v-36.47v-3.31c0-0.93,0.01-1.9,0.04-2.92
		c0.03-1.02,0.04-1.88,0.04-2.58c1.68-0.93,3.52-1.66,5.49-2.18c1.98-0.52,3.88-0.93,5.71-1.22c1.83-0.29,3.46-0.48,4.88-0.57
		c1.43-0.08,2.4-0.13,2.92-0.13H1137.99L1137.99,1373.45z M1110.86,1374.85v35.76c-0.06,1.22-0.09,2.36-0.09,3.4v5.5
		c-1.75,0.99-3.62,1.76-5.63,2.31c-2,0.56-3.94,0.98-5.8,1.27c-1.86,0.29-3.52,0.48-4.97,0.57c-1.46,0.09-2.45,0.13-2.96,0.13h-0.44
		c-4.3,0-7.75-0.54-10.34-1.62c-2.59-1.08-4.55-2.52-5.88-4.32c-1.34-1.81-2.22-3.91-2.62-6.33c-0.41-2.41-0.61-4.99-0.61-7.72
		v-28.96h13.26v28.96c0,2.21,0.47,4.12,1.4,5.71c0.93,1.6,2.62,2.4,5.06,2.4c0.41,0,1.23-0.05,2.49-0.17
		c1.25-0.12,2.54-0.5,3.88-1.13v-35.76H1110.86L1110.86,1374.85z M1056.33,1374.76h11.78l-5.93,11.77h-5.85v36.29h-12.99v-49.29
		c0-2.33,0.41-4.58,1.22-6.76s2.08-4.09,3.8-5.71c1.71-1.63,3.87-2.93,6.45-3.93c2.59-0.99,5.69-1.48,9.29-1.48
		c1.28,0,2.18,0.14,2.71,0.43v11.52c-0.24-0.12-0.54-0.19-0.92-0.22c-0.38-0.03-0.83-0.04-1.35-0.04c-0.7,0-1.51,0.06-2.45,0.18
		c-0.93,0.12-1.83,0.38-2.7,0.79c-0.88,0.41-1.6,1.02-2.18,1.83c-0.58,0.81-0.88,1.95-0.88,3.4V1374.76L1056.33,1374.76z
		 M1013.24,1402.15h-25.56c0,1.22,0.03,2.54,0.09,3.97c0.06,1.42,0.31,2.74,0.74,3.96c0.43,1.22,1.12,2.24,2.05,3.06
		c0.93,0.81,2.27,1.22,4.02,1.22c1.22,0,2.21-0.18,2.96-0.52c0.76-0.35,1.37-0.77,1.83-1.27s0.81-1.02,1.05-1.57
		c0.24-0.55,0.44-1.06,0.61-1.53h12.04c-0.28,2.15-0.83,4.1-1.65,5.85c-0.81,1.74-1.95,3.22-3.4,4.45s-3.29,2.15-5.5,2.79
		c-2.21,0.64-4.86,0.96-7.93,0.96c-3.5,0-6.48-0.61-8.94-1.83c-2.47-1.23-4.46-2.83-5.98-4.8c-1.52-1.98-2.62-4.24-3.32-6.81
		c-0.7-2.55-1.05-5.2-1.05-7.93v-10.65c0-2.68,0.39-5.12,1.18-7.33c0.79-2.21,1.96-4.11,3.53-5.71c1.57-1.6,3.56-2.83,5.98-3.71
		c2.41-0.87,5.28-1.31,8.6-1.31c3.66,0,6.7,0.57,9.11,1.7c2.41,1.14,4.33,2.63,5.76,4.49c1.42,1.86,2.41,4.04,2.96,6.54
		c0.55,2.5,0.83,5.09,0.83,7.77V1402.15L1013.24,1402.15z M1001.56,1392.9c0-1.11-0.04-2.25-0.13-3.45
		c-0.09-1.19-0.35-2.29-0.79-3.31c-0.44-1.02-1.12-1.86-2.05-2.53c-0.93-0.67-2.27-1.01-4.01-1.01c-2.45,0-4.21,0.74-5.28,2.23
		c-1.08,1.48-1.62,3.71-1.62,6.67v2.45h13.87V1392.9L1001.56,1392.9z M957.41,1374.85h13.7l-16.31,47.98H943.1l-16.31-47.98h13.53
		l8.64,31.57L957.41,1374.85L957.41,1374.85z M883.09,1407.21v0.35V1407.21L883.09,1407.21z M883.09,1406.95v0.09V1406.95
		L883.09,1406.95z M883.09,1407.65v-0.09V1407.65L883.09,1407.65z M922.61,1419.6c-1.98,1.04-4.1,1.85-6.37,2.4
		c-2.27,0.56-4.41,0.97-6.45,1.26c-2.32,0.29-4.65,0.46-6.98,0.53c-3.49,0-6.47-0.41-8.94-1.22c-2.47-0.82-4.51-1.94-6.11-3.36
		c-1.6-1.42-2.78-3.12-3.53-5.1c-0.76-1.97-1.13-4.12-1.13-6.45c0-2.44,0.48-4.52,1.44-6.24c0.96-1.71,2.23-3.12,3.8-4.23
		c1.57-1.1,3.37-1.91,5.41-2.44c2.03-0.53,4.15-0.79,6.36-0.79c1.8,0,3.61,0.17,5.41,0.52c1.8,0.34,3.55,0.87,5.24,1.57v-5.41
		c0-2.91-0.56-4.97-1.66-6.2c-1.1-1.22-3.08-1.83-5.93-1.83c-1.68,0-3.02,0.25-4.01,0.74c-0.99,0.5-1.75,1.11-2.27,1.83
		c-0.52,0.73-0.86,1.5-1,2.31c-0.15,0.81-0.22,1.54-0.22,2.18h-11.07c0-2.04,0.36-4.03,1.09-5.98c0.73-1.95,1.83-3.68,3.32-5.19
		c1.48-1.51,3.36-2.73,5.62-3.66c2.27-0.93,4.95-1.4,8.03-1.4c3.67,0,6.76,0.38,9.29,1.13c2.53,0.76,4.58,1.86,6.15,3.31
		c1.58,1.46,2.72,3.25,3.45,5.37c0.73,2.12,1.09,4.55,1.09,7.28V1419.6L922.61,1419.6z M910.74,1405.9c-0.81-0.58-2-1.14-3.58-1.66
		c-1.57-0.52-3.46-0.79-5.67-0.79c-1.86,0-3.49,0.33-4.89,0.96c-1.39,0.64-2.09,1.72-2.09,3.23c0,1.34,0.24,2.44,0.74,3.32
		c0.49,0.87,1.13,1.57,1.92,2.09c0.79,0.52,1.7,0.9,2.75,1.13c1.04,0.23,2.12,0.35,3.22,0.35c1.34,0,2.68-0.12,4.02-0.35
		c1.34-0.23,2.53-0.55,3.58-0.96V1405.9L910.74,1405.9z M877.33,1391.77v31.06h-13.09v-30.36c0-1.57-0.29-2.78-0.87-3.62
		c-0.58-0.84-1.31-1.43-2.18-1.79c-0.87-0.35-1.85-0.55-2.92-0.61c-1.07-0.06-2.13-0.09-3.18-0.09h-3.23v36.47h-13v-66.3h13v18.24
		h3.23c3.72,0,6.95,0.45,9.68,1.35c2.73,0.9,5.02,2.11,6.85,3.62c1.83,1.51,3.21,3.31,4.14,5.41c0.93,2.09,1.43,4.3,1.49,6.63
		H877.33L877.33,1391.77z M808.15,1411.31v11.52h-15.44v-11.52H808.15L808.15,1411.31z M788.78,1402.15h-25.56
		c0,1.22,0.03,2.54,0.09,3.97c0.06,1.42,0.31,2.74,0.74,3.96c0.44,1.22,1.12,2.24,2.05,3.06c0.93,0.81,2.27,1.22,4.02,1.22
		c1.22,0,2.21-0.18,2.96-0.52c0.76-0.35,1.37-0.77,1.83-1.27c0.46-0.5,0.82-1.02,1.05-1.57c0.23-0.55,0.44-1.06,0.61-1.53h12.04
		c-0.29,2.15-0.84,4.1-1.66,5.85c-0.81,1.74-1.95,3.22-3.4,4.45c-1.45,1.22-3.29,2.15-5.5,2.79c-2.21,0.64-4.86,0.96-7.93,0.96
		c-3.49,0-6.48-0.61-8.94-1.83c-2.47-1.23-4.46-2.83-5.98-4.8c-1.52-1.98-2.62-4.24-3.32-6.81c-0.7-2.55-1.05-5.2-1.05-7.93v-10.65
		c0-2.68,0.39-5.12,1.18-7.33c0.79-2.21,1.96-4.11,3.53-5.71c1.57-1.6,3.56-2.83,5.98-3.71c2.41-0.87,5.28-1.31,8.6-1.31
		c3.66,0,6.7,0.57,9.12,1.7c2.41,1.14,4.33,2.63,5.75,4.49c1.43,1.86,2.42,4.04,2.96,6.54c0.55,2.5,0.83,5.09,0.83,7.77V1402.15
		L788.78,1402.15z M777.09,1392.9c0-1.11-0.05-2.25-0.13-3.45c-0.09-1.19-0.35-2.29-0.79-3.31c-0.44-1.02-1.12-1.86-2.05-2.53
		c-0.93-0.67-2.27-1.01-4.01-1.01c-2.45,0-4.21,0.74-5.28,2.23c-1.08,1.48-1.62,3.71-1.62,6.67v2.45h13.88V1392.9L777.09,1392.9z
		 M743.33,1356.44v48.15c0,2.73-0.42,5.28-1.27,7.63c-0.84,2.36-2.09,4.39-3.75,6.11c-1.66,1.72-3.7,3.06-6.15,4.02
		c-2.44,0.96-5.26,1.44-8.46,1.44c-3.31,0-6.19-0.47-8.64-1.4c-2.44-0.93-4.46-2.22-6.06-3.89c-1.6-1.66-2.81-3.63-3.62-5.93
		c-0.81-2.3-1.22-4.78-1.22-7.46v-14.22c0-5.41,1.78-9.64,5.36-12.7c3.58-3.05,9.06-4.64,16.45-4.75c0.69,0,1.38,0,2.05,0
		c0.67,0,1.35,0.05,2.05,0.17v-17.18H743.33L743.33,1356.44z M723.7,1412.62c2.44,0,4.12-0.68,5.02-2.05
		c0.9-1.36,1.35-3.36,1.35-5.97v-19.98c-1.86-0.46-3.58-0.69-5.15-0.69c-2.15,0-3.95,0.54-5.41,1.62c-1.46,1.07-2.18,3.04-2.18,5.88
		v13.7c0,2.44,0.47,4.3,1.39,5.58C719.66,1411.98,721.32,1412.62,723.7,1412.62L723.7,1412.62z M678.69,1373.45
		c6.98,0,11.95,1.55,14.92,4.67c2.97,3.11,4.45,7.67,4.45,13.65v13c0,2.74-0.35,5.25-1.04,7.55c-0.69,2.29-1.82,4.29-3.36,5.97
		c-1.54,1.69-3.53,3.01-5.97,3.97c-2.45,0.96-5.44,1.44-8.99,1.44c-3.32,0-6.18-0.49-8.59-1.44c-2.42-0.96-4.4-2.28-5.98-3.97
		c-1.57-1.68-2.75-3.68-3.54-5.97c-0.79-2.3-1.18-4.82-1.18-7.55v-13.35c0-2.67,0.39-5.11,1.18-7.32c0.79-2.22,1.96-4.1,3.54-5.67
		c1.57-1.57,3.56-2.79,5.98-3.67C672.51,1373.89,675.37,1373.45,678.69,1373.45L678.69,1373.45z M678.69,1412.8
		c2.32,0,3.95-0.75,4.89-2.27c0.93-1.51,1.39-3.38,1.39-5.58v-13.69c0-2.27-0.53-4.05-1.57-5.33c-1.05-1.28-2.62-1.92-4.71-1.92
		c-2.38,0-4.03,0.77-4.93,2.31c-0.9,1.55-1.35,3.39-1.35,5.54v13.17c0,2.15,0.45,3.99,1.35,5.5
		C674.66,1412.04,676.31,1412.8,678.69,1412.8L678.69,1412.8z M633.24,1412.53c2.39,0,4.06-0.79,5.02-2.36
		c0.96-1.57,1.44-3.46,1.44-5.67h13.17c0,2.73-0.35,5.27-1.04,7.63c-0.7,2.36-1.83,4.39-3.4,6.1c-1.58,1.72-3.61,3.07-6.11,4.06
		c-2.5,0.99-5.52,1.48-9.07,1.48c-3.31,0-6.19-0.48-8.64-1.44c-2.44-0.96-4.46-2.27-6.06-3.93c-1.6-1.65-2.81-3.63-3.62-5.93
		c-0.81-2.3-1.22-4.79-1.22-7.46v-13.52c0-2.68,0.4-5.12,1.22-7.33c0.81-2.21,2.02-4.11,3.62-5.71c1.6-1.6,3.62-2.83,6.06-3.71
		c2.45-0.87,5.32-1.31,8.64-1.31c3.37,0,6.28,0.45,8.73,1.35c2.44,0.9,4.48,2.17,6.11,3.79c1.63,1.63,2.83,3.59,3.62,5.89
		c0.78,2.3,1.18,4.82,1.18,7.55h-13.17c0-2.21-0.48-4.1-1.44-5.67c-0.96-1.57-2.63-2.35-5.02-2.35c-2.38,0-4.04,0.73-4.97,2.18
		c-0.93,1.45-1.39,3.23-1.39,5.32v13.52c0,2.09,0.48,3.87,1.44,5.33C629.27,1411.8,630.91,1412.53,633.24,1412.53L633.24,1412.53z
		 M565.81,1373.45c6.98,0,11.95,1.55,14.91,4.67c2.97,3.11,4.45,7.67,4.45,13.65v13c0,2.74-0.35,5.25-1.04,7.55
		c-0.7,2.29-1.82,4.29-3.36,5.97c-1.54,1.69-3.53,3.01-5.97,3.97c-2.44,0.96-5.44,1.44-8.98,1.44c-3.32,0-6.18-0.49-8.6-1.44
		c-2.41-0.96-4.4-2.28-5.98-3.97c-1.57-1.68-2.75-3.68-3.53-5.97c-0.79-2.3-1.18-4.82-1.18-7.55v-13.35c0-2.67,0.39-5.11,1.18-7.32
		c0.79-2.22,1.96-4.1,3.53-5.67c1.57-1.57,3.56-2.79,5.98-3.67C559.62,1373.89,562.49,1373.45,565.81,1373.45L565.81,1373.45z
		 M565.81,1412.8c2.32,0,3.95-0.75,4.89-2.27c0.93-1.51,1.39-3.38,1.39-5.58v-13.69c0-2.27-0.53-4.05-1.57-5.33
		c-1.05-1.28-2.62-1.92-4.71-1.92c-2.39,0-4.03,0.77-4.93,2.31c-0.9,1.55-1.35,3.39-1.35,5.54v13.17c0,2.15,0.45,3.99,1.35,5.5
		C561.78,1412.04,563.42,1412.8,565.81,1412.8L565.81,1412.8z M531,1386.62v18.4c0,1.46,0.31,2.61,0.92,3.45
		c0.61,0.84,1.34,1.5,2.18,1.96c0.84,0.46,1.74,0.77,2.71,0.92c0.95,0.15,1.79,0.22,2.48,0.22c1.05,0,1.8-0.09,2.27-0.26v11.6
		c-0.29,0.18-0.67,0.28-1.13,0.3c-0.46,0.03-0.99,0.04-1.57,0.04c-3.6,0-6.73-0.5-9.38-1.53c-2.64-1.02-4.83-2.37-6.54-4.06
		c-1.72-1.69-2.98-3.62-3.8-5.8c-0.81-2.18-1.22-4.46-1.22-6.85v-48.5H531v18.33h11.61l-5.94,11.77H531L531,1386.62z
		 M469.32,1373.45c4.25,0,7.62,0.52,10.12,1.57c2.5,1.05,4.42,2.46,5.76,4.23c1.34,1.77,2.21,3.84,2.61,6.2
		c0.41,2.35,0.61,4.87,0.61,7.54v29.84h-13.09v-29.84c0-1.11-0.1-2.14-0.3-3.1c-0.2-0.96-0.55-1.8-1.04-2.53
		c-0.49-0.73-1.15-1.3-1.97-1.7c-0.81-0.41-1.8-0.61-2.96-0.61c-0.41,0-1.22,0.06-2.44,0.18c-1.22,0.12-2.5,0.5-3.84,1.13v36.47h-13
		v-36.47v-3.31c0-0.93,0.01-1.9,0.04-2.92c0.03-1.02,0.04-1.88,0.04-2.58c1.69-0.93,3.52-1.66,5.49-2.18
		c1.98-0.52,3.88-0.93,5.72-1.22c1.83-0.29,3.46-0.48,4.89-0.57c1.42-0.08,2.4-0.13,2.92-0.13H469.32L469.32,1373.45z
		 M445.77,1374.85l-6.02,11.86h-7.07c-0.87,0-1.74,0.07-2.62,0.22c-0.87,0.14-1.62,0.43-2.27,0.87c-0.64,0.44-1.17,1.05-1.57,1.83
		c-0.41,0.79-0.61,1.85-0.61,3.19v30.01h-13.17v-30.01c0-2.44,0.43-4.74,1.3-6.89c0.88-2.15,2.21-4.04,4.01-5.67
		c1.8-1.63,4.07-2.92,6.81-3.89c2.73-0.96,5.96-1.47,9.68-1.52h0.69H445.77L445.77,1374.85z M364.99,1407.21v0.35V1407.21
		L364.99,1407.21z M364.99,1406.95v0.09V1406.95L364.99,1406.95z M364.99,1407.65v-0.09V1407.65L364.99,1407.65z M404.51,1419.6
		c-1.98,1.04-4.1,1.85-6.37,2.4c-2.27,0.56-4.42,0.97-6.46,1.26c-2.33,0.29-4.65,0.46-6.98,0.53c-3.49,0-6.47-0.41-8.94-1.22
		c-2.47-0.82-4.51-1.94-6.11-3.36c-1.6-1.42-2.78-3.12-3.53-5.1c-0.76-1.97-1.13-4.12-1.13-6.45c0-2.44,0.48-4.52,1.44-6.24
		c0.95-1.71,2.23-3.12,3.79-4.23c1.57-1.1,3.37-1.91,5.41-2.44c2.04-0.53,4.16-0.79,6.37-0.79c1.8,0,3.6,0.17,5.41,0.52
		c1.8,0.34,3.55,0.87,5.23,1.57v-5.41c0-2.91-0.55-4.97-1.66-6.2c-1.1-1.22-3.08-1.83-5.93-1.83c-1.69,0-3.02,0.25-4.01,0.74
		c-0.99,0.5-1.74,1.11-2.27,1.83c-0.52,0.73-0.86,1.5-1,2.31c-0.15,0.81-0.22,1.54-0.22,2.18h-11.08c0-2.04,0.36-4.03,1.09-5.98
		c0.73-1.95,1.83-3.68,3.32-5.19c1.48-1.51,3.36-2.73,5.63-3.66c2.27-0.93,4.95-1.4,8.03-1.4c3.66,0,6.76,0.38,9.29,1.13
		c2.53,0.76,4.58,1.86,6.15,3.31c1.57,1.46,2.72,3.25,3.45,5.37c0.72,2.12,1.09,4.55,1.09,7.28V1419.6L404.51,1419.6z
		 M392.64,1405.9c-0.81-0.58-2-1.14-3.57-1.66c-1.57-0.52-3.46-0.79-5.67-0.79c-1.86,0-3.49,0.33-4.89,0.96
		c-1.4,0.64-2.09,1.72-2.09,3.23c0,1.34,0.25,2.44,0.74,3.32c0.49,0.87,1.13,1.57,1.92,2.09c0.79,0.52,1.7,0.9,2.75,1.13
		c1.04,0.23,2.12,0.35,3.22,0.35c1.34,0,2.67-0.12,4.02-0.35c1.34-0.23,2.53-0.55,3.57-0.96V1405.9L392.64,1405.9z M360.1,1402.15
		h-25.56c0,1.22,0.03,2.54,0.09,3.97c0.06,1.42,0.31,2.74,0.74,3.96c0.43,1.22,1.12,2.24,2.05,3.06c0.93,0.81,2.27,1.22,4.02,1.22
		c1.22,0,2.21-0.18,2.96-0.52c0.76-0.35,1.37-0.77,1.83-1.27c0.46-0.5,0.81-1.02,1.04-1.57c0.23-0.55,0.44-1.06,0.61-1.53h12.04
		c-0.29,2.15-0.84,4.1-1.65,5.85c-0.81,1.74-1.95,3.22-3.4,4.45c-1.46,1.22-3.29,2.15-5.5,2.79c-2.21,0.64-4.86,0.96-7.94,0.96
		c-3.49,0-6.47-0.61-8.94-1.83c-2.47-1.23-4.46-2.83-5.97-4.8c-1.51-1.98-2.62-4.24-3.32-6.81c-0.7-2.55-1.04-5.2-1.04-7.93v-10.65
		c0-2.68,0.39-5.12,1.17-7.33c0.79-2.21,1.96-4.11,3.53-5.71c1.58-1.6,3.56-2.83,5.98-3.71c2.41-0.87,5.27-1.31,8.59-1.31
		c3.66,0,6.7,0.57,9.12,1.7c2.41,1.14,4.33,2.63,5.76,4.49c1.42,1.86,2.41,4.04,2.96,6.54c0.55,2.5,0.83,5.09,0.83,7.77V1402.15
		L360.1,1402.15z M348.41,1392.9c0-1.11-0.04-2.25-0.13-3.45c-0.09-1.19-0.35-2.29-0.79-3.31c-0.43-1.02-1.12-1.86-2.05-2.53
		c-0.93-0.67-2.27-1.01-4.01-1.01c-2.45,0-4.2,0.74-5.28,2.23c-1.08,1.48-1.61,3.71-1.61,6.67v2.45h13.87V1392.9z"/>
</g>
<g>
	<path class="st1" d="M709.25,187.69l-0.89-42.12c-1.21-60.11,20.72-80.2,52.05-80.83c28.95-0.59,64.36,18.44,94.92,34.86
		c14.33,7.7,27.52,14.78,37.43,18.42c29.77,10.92,55.17,12.88,75.34,4.66c16.5-6.73,30.11-20.64,40.43-42.46
		c7.68-16.24,31.63-8.01,22.81,10.68c-13.16,27.9-31.29,45.98-53.79,55.15c-26.31,10.73-57.73,8.78-93.4-4.3
		c-11.57-4.24-25.53-11.74-40.69-19.89c-27.93-15.01-60.28-32.39-82.57-31.94c-16.62,0.33-28.19,14.01-27.36,55.17l0.88,42.12
		L709.25,187.69z"/>
	<path class="st1" d="M498.85,978.57c-60.86-60.44-95.32-141.87-95.62-227.73c5.24-46.01,62.89-469.42,64.35-479.28
		c5.09-34.34,32.83-58.25,72.76-73.85c88.87-34.73,307.43-34.88,393.83,4.5c34.16,15.57,57.47,38.16,62.09,69.35
		c1.46,9.86,59.11,433.28,64.35,479.28c-0.3,85.86-34.76,167.29-95.62,227.73C838.49,1104.19,625.35,1104.19,498.85,978.57z"/>
	<path class="st3" d="M1035.73,752.19c-3.25-28.22-7.27-56.56-11.01-84.72c-6.7-50.37-13.48-100.72-20.28-151.07
		c-7.34-54.38-14.71-108.75-22.11-163.11c-3.54-25.99-6.84-52.14-10.68-78.07c-2.86-19.3-48.05-51.75-73.56-52.75
		c2.65,22.9,13.71,79.21,16.23,102.12c5.97,54.36-33.07,72.47-27.15,126.85c5.49,50.35,38.53,122.49,43.93,172.85
		c10.43,97.29,69.48,158.22,13.55,253.28c-110.93,188.57-392.72,172.44-433.66-83.7c-17.55-109.78,2.74-110.13,7.24-152.16
		c5.4-50.37,41.35-118.15,46.83-168.5c5.92-54.37-31.66-111.66-25.69-166.02c2.52-22.92,9.95-58.19,12.6-81.09
		c-27.8,6.16-56.93,30-59.77,49.13c-3.85,25.93-7.15,52.09-10.69,78.07c-7.4,54.37-14.77,108.74-22.11,163.11
		c-6.8,50.35-13.58,100.7-20.27,151.06c-3.75,28.17-7.76,56.5-11.01,84.73c0.66,78.71,32.42,153.27,88.27,208.73
		c116.8,115.99,314.27,115.99,431.08,0C1003.31,905.46,1035.07,830.91,1035.73,752.19z"/>
	<path class="st2" d="M884.39,218.99c-92.1-16.8-228.34-15.64-314.18,1.6c-103.49,20.79-37.71,126.67-26.23,204.77
		c10.61,72.15-3.01,119.17-21.34,162.2c-55.59,130.5-93.73,354.77,77.03,430.14c93.13,41.1,234.94,43.32,318.57-35.52
		c107.93-101.74,70.28-245.77,33.74-377.52c-18.88-68.09-40.19-106.81-36.31-186.94C918.4,361.61,1007.61,241.47,884.39,218.99
		L884.39,218.99z M810.66,854.46c-123.5,65.69-221.36-34.26-215.59-31.55c57,26.73,122.5,54.18,213.84,8.86
		c42.02-20.86,72.08-54.51,88.95-93.12c-5.47,1.18-13.66,4.51-26.88,9.21c38.12-35.76,49.84-27.82,47.63,21.82
		c-6.17-16.3-8.07-25.37-11.58-29.24C892.39,787.09,859.21,828.64,810.66,854.46z"/>
	<path class="st4" d="M875.04,220.24c72.44,37,36.76,104.18,11.77,161.17c-14.76,33.66-16.82,61.88-14.97,83.35
		c11.23,130.09,117.22,334.44,60.38,449.43c-16.7,33.79-50.48,67.15-94.79,106.89c72.9-30.04,135.25-90.19,143.78-191.61
		c5.05-60.09-30.44-168.22-34.84-209.33c-5.48-51.07-41.49-113.75-47.05-164.81C893.04,397.72,1017.32,240.63,875.04,220.24z"/>
	<path class="st1" d="M360.45,502c67.46-2.83,308.55-44.43,340.24,23.62c9.32,20,54.88,18.09,62.49-2.62
		c25.87-70.47,269.6-49.23,337.06-52.06c28.36-1.19,24.4,50.72-10.29,52.1l2.17,51.57c3.44,81.97-76.39,134.08-184.47,125.29
		c-58.31-4.75-117.05-34.41-137.73-79.75c-18.76-41.14-52.58-39.72-67.82,2.85c-16.8,46.92-72.85,81.4-130.56,91.02
		c-106.96,17.83-190.88-27.41-194.32-109.38l-2.16-51.57C340.39,554.6,332.09,503.19,360.45,502z"/>
	<g>
		<path class="st5" d="M671.87,550.83c17.21,150.15-160.48,167.23-231.98,110.15c-27.16-21.68-49-102.88-16.85-122.45
			c23.04-14.03,69.51-18.71,116.24-20.46C604.62,515.61,668.19,518.68,671.87,550.83z"/>
		<path class="st5" d="M794.02,545.7c-4.56,151.07,173.94,153.18,240.4,90.31c25.25-23.88,40.21-106.62,6.53-123.43
			c-24.14-12.05-70.83-12.81-117.54-10.64C858.07,504.97,794.99,513.35,794.02,545.7z"/>
	</g>
	<path class="st1" d="M548.82,548.92c6.53-0.28,12.71,2.6,17.84,7.7c-8.26,1.75-14.3,10.87-13.85,21.59
		c0.49,11.69,8.52,20.84,17.93,20.44c3.66-0.16,7-1.73,9.67-4.29c0.02,23.06-12.12,41.84-27.89,42.5
		c-16.4,0.69-30.51-18.44-31.53-42.72C519.97,569.85,532.43,549.61,548.82,548.92z"/>
	<path class="st1" d="M909.4,533.77c6.54-0.28,12.71,2.6,17.83,7.7c-8.26,1.75-14.31,10.87-13.85,21.59
		c0.49,11.69,8.52,20.84,17.93,20.45c3.66-0.15,7-1.73,9.68-4.29c0.02,23.06-12.12,41.84-27.89,42.5
		c-16.39,0.69-30.51-18.44-31.53-42.73C880.54,554.7,893,534.46,909.4,533.77z"/>
	<g>
		<path class="st1" d="M734.18,622.28L734.18,622.28c19.88-0.06,36.21,13.4,36.28,29.91l0.38,89.53
			c0.07,16.51-16.14,30.07-36.02,30.13l0,0c-19.88,0.06-36.21-13.4-36.28-29.92l-0.38-89.53
			C698.09,635.9,714.3,622.34,734.18,622.28z"/>
		<path class="st1" d="M475.92,462.94c38.57-47.83,85.77-60.07,145.09-44.25l2.18,33.37C567.81,443.46,532.56,445.74,475.92,462.94z
			"/>
		<path class="st1" d="M972.35,425.35c-48.37-37.89-97.12-39.17-151.33-10.37l5.41,33C878.43,427.12,913.29,421.38,972.35,425.35z"
			/>
		<path class="st1" d="M682.14,174.67l3.57-17.29c2.29-11.1,21.55-14.25,40.45-13.74c18.02,0.49,35.73,4.12,37.85,13.96l5.02,23.3
			L682.14,174.67z"/>
	</g>
</g>
</svg>
